<?xml version="1.0" encoding="utf-8"?>
<?xml-stylesheet type="text/xsl" href="rss1.xsl"?>
<rss version="2.0" xmlns:atom="http://www.w3.org/2005/Atom" xmlns:content="http://purl.org/rss/1.0/modules/content/" xmlns:dc="http://purl.org/dc/elements/1.1/" xmlns:media="http://search.yahoo.com/mrss/">
<channel>
 <title>Getty</title>
 <link>http://www.gettyimg.com/</link>
 <atom:link href="http://www.gettyimg.com/" rel="self" type="application/rss+xml" />

 
                <item>
                <title><![CDATA[【Cinema Center】MOVIE - Barbie.A.Fashion.Fairytale.2010.540p.STAN.WEB-DL.AAC2.0.H.264-Samuel]]></title>
                <link><![CDATA[https://sharemania.us/threads/barbie-a-fashion-fairytale-2010-540p-stan-web-dl-aac2-0-h-264-samuel.234394/]]></link>
                <description><![CDATA[<article>
<blockquote class="messageText SelectQuoteContainer ugc baseHtml">
<div style="text-align: center"><b><span style="font-size: 26px">Barbie: A Fashion Fairytale</span></b><br>
<img src="https://i.imgur.com/LivzJCq.jpg" class="bbCodeImage LbImage" alt="[​IMG]" data-url="https://i.imgur.com/LivzJCq.jpg" style=""><br>
<b><a href="https://i.imgur.com/9BkiyMI.jpg" target="_blank" class="externalLink" rel="nofollow">Banner Background</a></b> | <b><a href="https://i.imgur.com/a6IthT5.jpg" target="_blank" class="externalLink" rel="nofollow">Box Art</a></b> | <b><a href="https://i.imgur.com/CmIt4xh.jpg" target="_blank" class="externalLink" rel="nofollow">Cast Ensemble Image</a></b> | <b><a href="https://i.imgur.com/R0huUhk.jpg" target="_blank" class="externalLink" rel="nofollow">Cast in Character Image</a></b> | <b><a href="https://i.imgur.com/R7Hfehh.jpg" target="_blank" class="externalLink" rel="nofollow">Iconic Header Image</a></b> | <b><a href="https://i.imgur.com/e0WOVqn.png" target="_blank" class="externalLink" rel="nofollow">Logo</a></b> | <b><a href="https://i.imgur.com/w8tDpOd.jpg" target="_blank" class="externalLink" rel="nofollow">Poster</a></b><br>
<br>
G • 2010 • 83 mins • HD<br>
<br>
<div class="bbCodeBlock bbCodeQuote">
<aside>
<blockquote class="quoteContainer"><div class="quote"><b><span style="font-size: 15px"><span style="font-family: 'Arial'">Program Description</span></span></b><br>
Barbie's modern adventure takes her to Paris, where she makes new friends and meets magical characters that discover their true designer talents and use their inner sparkle to save the day!</div><div class="quoteExpand">Click to expand...</div></blockquote>
</aside>
</div>
<div class="bbCodeBlock bbCodeQuote">
<aside>
<blockquote class="quoteContainer"><div class="quote"><b><span style="font-size: 15px"><span style="font-family: 'Arial'">Program Details</span></span></b><br>
<b>Genres:</b> Family, Animation, Fantasy, Kids<br>
<b>Cast:</b> Diana Kaarina, Adrian Petriw, Tabitha St. Germain, Patricia Drake, Alexa Devine<br>
<b>Directors:</b> William Lau<br>
<b>Languages:</b> English</div><div class="quoteExpand">Click to expand...</div></blockquote>
</aside>
</div>
<div class="bbCodeBlock bbCodeQuote">
<aside>
<blockquote class="quoteContainer"><div class="quote"><b><span style="font-size: 15px"><span style="font-family: 'Arial'">Source</span></span></b><br>
<img src="https://i.imgur.com/8RZhFvg.png" class="bbCodeImage LbImage" alt="[​IMG]" data-url="https://i.imgur.com/8RZhFvg.png" style=""></div><div class="quoteExpand">Click to expand...</div></blockquote>
</aside>
</div>
<div class="bbCodeBlock bbCodeQuote">
<aside>
<blockquote class="quoteContainer"><div class="quote"><b><span style="font-size: 15px">Release Name</span></b><br>
Barbie.A.Fashion.Fairytale.2010.540p.STAN.WEB-DL.AAC2.0.H.264-Samuel</div><div class="quoteExpand">Click to expand...</div></blockquote>
</aside>
</div>
<div class="ToggleTriggerAnchor bbCodeSpoilerContainer">
<button type="button" class="button bbCodeSpoilerButton ToggleTrigger Tooltip JsOnly" data-target="> .SpoilerTarget"><span>Spoiler: <span class="SpoilerTitle">Media Information</span></span></button>
<div class="SpoilerTarget bbCodeSpoilerText">General<br>
Complete name : Barbie.A.Fashion.Fairytale.2010.540p.STAN.WEB-DL.AAC2.0.H.264-Samuel.mkv<br>
Format : Matroska<br>
Format version : Version 4<br>
File size : 1.42 GiB<br>
Duration : 1 h 22 min<br>
Overall bit rate : 2 459 kb/s<br>
Frame rate : 25.000 FPS<br>
Encoded date : 2023-12-21 17:47:14 UTC<br>
Writing application : mkvmerge v81.0 ('Milliontown') 64-bit<br>
Writing library : libebml v1.4.4 + libmatroska v1.7.1<br>
<br>
Video<br>
ID : 1<br>
Format : AVC<br>
Format/Info : Advanced Video Codec<br>
Format profile : High@L3.1<br>
Format settings : CABAC / 8 Ref Frames<br>
Format settings, CABAC : Yes<br>
Format settings, Reference frames : 8 frames<br>
Codec ID : V_MPEG4/ISO/AVC<br>
Duration : 1 h 22 min<br>
Bit rate : 2 325 kb/s<br>
Width : 960 pixels<br>
Height : 540 pixels<br>
Display aspect ratio : 16:9<br>
Frame rate mode : Constant<br>
Frame rate : 25.000 FPS<br>
Color space : YUV<br>
Chroma subsampling : 4:2:0<br>
Bit depth : 8 bits<br>
Scan type : Progressive<br>
Bits/(Pixel*Frame) : 0.179<br>
Stream size : 1.34 GiB (95%)<br>
Default : Yes<br>
Forced : No<br>
Color range : Limited<br>
Matrix coefficients : BT.709<br>
<br>
Audio<br>
ID : 2<br>
Format : AAC LC<br>
Format/Info : Advanced Audio Codec Low Complexity<br>
Codec ID : A_AAC-2<br>
Duration : 1 h 22 min<br>
Bit rate : 126 kb/s<br>
Channel(s) : 2 channels<br>
Channel layout : L R<br>
Sampling rate : 44.1 kHz<br>
Frame rate : 43.066 FPS (1024 SPF)<br>
Compression mode : Lossy<br>
Stream size : 74.1 MiB (5%)<br>
Language : English<br>
Default : Yes<br>
Forced : No<br>
<br>
Text<br>
ID : 3<br>
Format : UTF-8<br>
Codec ID : S_TEXT/UTF8<br>
Codec ID/Info : UTF-8 Plain Text<br>
Duration : 1 h 21 min<br>
Bit rate : 69 b/s<br>
Frame rate : 0.279 FPS<br>
Count of elements : 1371<br>
Stream size : 41.7 KiB (0%)<br>
Title : SDH<br>
Language : English<br>
Default : No<br>
Forced : No</div>
</div><br>
<b>Screenshots</b><br>
<img src="https://i.imgur.com/Lr1raUx.png" class="bbCodeImage LbImage" alt="[​IMG]" data-url="https://i.imgur.com/Lr1raUx.png" style=""><br>
<br>
<b>Download</b><br>
<div class="bbCodeBlock bbCodeVfcHH HiddenContent">
<div class="attribution type">Hidden Content:</div>
<blockquote>You must reply before you can see the hidden data contained here.</blockquote>
</div></div>
<div class="messageTextEndMarker">&nbsp;</div>
</blockquote>
</article>]]></description>
                <author><![CDATA[Samuel]]></author>
                </item>

                </channel></rss>